<svg xmlns="http://www.w3.org/2000/svg" xmlns:xlink="http://www.w3.org/1999/xlink" version="1.1" width="940" height="788" viewBox="0 0 940 788" xml:space="preserve">
<desc>Created with Fabric.js 3.5.0</desc>
<defs>
</defs>
<rect x="0" y="0" width="100%" height="100%" fill="#131921"/>
<g transform="matrix(1.2209 0 0 1.0012 465.86 412.4037)" id="264564">
<g style="" vector-effect="non-scaling-stroke">
		<g transform="matrix(40 0 0 40 79.9965 20)">
<path style="stroke: none; stroke-width: 1; stroke-dasharray: none; stroke-linecap: butt; stroke-dashoffset: 0; stroke-linejoin: miter; stroke-miterlimit: 4; is-custom-font: none; font-file-url: none; fill: rgb(255,255,255); fill-rule: evenodd; opacity: 1;" transform=" translate(-11.9999, -10.5)" d="M 16.5131 6 L 7.48727 6 C 7.29999 6 7.11329 6.02105 6.9307 6.06274 C 5.58464 6.37013 4.74263 7.71051 5.05002 9.05657 L 5.96345 13.0566 C 6.2231 14.1936 7.23443 15 8.40071 15 L 15.5996 15 C 16.7659 15 17.7772 14.1936 18.0369 13.0566 L 18.9503 9.05657 C 18.992 8.87398 19.0131 8.68729 19.0131 8.5 C 19.0131 7.11929 17.8938 6 16.5131 6 Z M 7.37596 8.01255 C 7.41248 8.00421 7.44982 8 7.48727 8 L 16.5131 8 C 16.7892 8 17.0131 8.22386 17.0131 8.5 C 17.0131 8.53746 17.0089 8.5748 17.0005 8.61131 L 16.0871 12.6113 C 16.0352 12.8387 15.8329 13 15.5996 13 L 8.40071 13 C 8.16745 13 7.96519 12.8387 7.91326 12.6113 L 6.99982 8.61131 C 6.93835 8.3421 7.10675 8.07403 7.37596 8.01255 Z" stroke-linecap="round"/>
</g>
		<g transform="matrix(40 0 0 40 -219.9957 -119.9961)">
<path style="stroke: none; stroke-width: 1; stroke-dasharray: none; stroke-linecap: butt; stroke-dashoffset: 0; stroke-linejoin: miter; stroke-miterlimit: 4; is-custom-font: none; font-file-url: none; fill: rgb(255,255,255); fill-rule: nonzero; opacity: 1;" transform=" translate(-4.5001, -7.0001)" d="M 3.49044 2 L 2 2 C 1.44772 2 1 1.55228 1 1 C 1 0.447715 1.44772 0 2 0 L 4.28977 0 C 4.75718 0 5.16223 0.323776 5.2652 0.779696 L 7.97543 12.7797 C 8.0971 13.3184 7.75902 13.8538 7.2203 13.9754 C 6.68159 14.0971 6.14624 13.759 6.02457 13.2203 L 3.49044 2 Z" stroke-linecap="round"/>
</g>
		<g transform="matrix(40 0 0 40 -70 290)">
<path style="stroke: none; stroke-width: 1; stroke-dasharray: none; stroke-linecap: butt; stroke-dashoffset: 0; stroke-linejoin: miter; stroke-miterlimit: 4; is-custom-font: none; font-file-url: none; fill: rgb(255,255,255); fill-rule: nonzero; opacity: 1;" transform=" translate(-8.25, -17.25)" d="M 10 17.25 C 10 18.2165 9.2165 19 8.25 19 C 7.2835 19 6.5 18.2165 6.5 17.25 C 6.5 16.2835 7.2835 15.5 8.25 15.5 C 9.2165 15.5 10 16.2835 10 17.25 Z" stroke-linecap="round"/>
</g>
		<g transform="matrix(40 0 0 40 210 290)">
<path style="stroke: none; stroke-width: 1; stroke-dasharray: none; stroke-linecap: butt; stroke-dashoffset: 0; stroke-linejoin: miter; stroke-miterlimit: 4; is-custom-font: none; font-file-url: none; fill: rgb(255,255,255); fill-rule: nonzero; opacity: 1;" transform=" translate(-15.25, -17.25)" d="M 17 17.25 C 17 18.2165 16.2165 19 15.25 19 C 14.2835 19 13.5 18.2165 13.5 17.25 C 13.5 16.2835 14.2835 15.5 15.25 15.5 C 16.2165 15.5 17 16.2835 17 17.25 Z" stroke-linecap="round"/>
</g>
</g>
</g>
</svg>